<svg height="512pt" viewBox="0 -75 512 512" width="512pt" xmlns="http://www.w3.org/2000/svg"><path d="m484.28125 266.367188c-2.390625-57.375-25.855469-110.972657-66.707031-151.824219-39.601563-39.601563-91.183594-62.863281-146.574219-66.429688v-18.113281h25.5v-30h-81v30h25.5v18.113281c-55.390625 3.566407-106.972656 26.828125-146.574219 66.429688-40.851562 40.851562-64.316406 94.449219-66.707031 151.824219h-27.71875v34.132812c0 33.359375 27.140625 60.5 60.5 60.5h391c33.359375 0 60.5-27.140625 60.5-60.5v-34.132812zm-228.28125-188.75c106.183594 0 193.15625 83.808593 198.257812 188.75h-396.515624c5.101562-104.941407 92.074218-188.75 198.257812-188.75zm226 222.882812c0 16.816406-13.683594 30.5-30.5 30.5h-391c-16.816406 0-30.5-13.683594-30.5-30.5v-4.132812h452zm0 0"/><path d="m85.652344 238.855469 29.6875 4.324219c.058594-.378907 5.964844-38.25 30.230468-59.578126l-19.808593-22.535156c-32.691407 28.738282-39.820313 75.796875-40.109375 77.789063zm0 0"/></svg>